PathFileType	4	(X/Y/Z)	/Users/itak/Documents/Research/Walk-IL/dataset/trc/00314_00010.trc
DataRate	CameraRate	NumFrames	NumMarkers	Units	OrigDataRate	OrigDataStartFrame	OrigNumFrames
100.000000	100.000000	4	55	mm	100.000000	407	543
Frame#	Time	RPSI			LPSI			L3			STRN			T10			C7			CLAV			RBAK			LBAK			LSHO			LUPA			LAEL			LAOL			LWTS			LWPS			LFRA			LIFD			LHPS			LHTS			RSHO			RUPA			RAEL			RAOL			RWTS			RWPS			RFRA			RIFD			RHPS			RBHD			LFHD			RFHD			LBHD			LHIP			RHIP			RASI			LASI			LKNE			LTHI			LANK			LTIP			LTOE			LMT1			LMT5			LHEE			RKNE			RTHI			RANK			RTIP			RTOE			RMT1			RMT5			RHEE			RHTS			*53			*54			
		X1	Y1	Z1	X2	Y2	Z2	X3	Y3	Z3	X4	Y4	Z4	X5	Y5	Z5	X6	Y6	Z6	X7	Y7	Z7	X8	Y8	Z8	X9	Y9	Z9	X10	Y10	Z10	X11	Y11	Z11	X12	Y12	Z12	X13	Y13	Z13	X14	Y14	Z14	X15	Y15	Z15	X16	Y16	Z16	X17	Y17	Z17	X18	Y18	Z18	X19	Y19	Z19	X20	Y20	Z20	X21	Y21	Z21	X22	Y22	Z22	X23	Y23	Z23	X24	Y24	Z24	X25	Y25	Z25	X26	Y26	Z26	X27	Y27	Z27	X28	Y28	Z28	X29	Y29	Z29	X30	Y30	Z30	X31	Y31	Z31	X32	Y32	Z32	X33	Y33	Z33	X34	Y34	Z34	X35	Y35	Z35	X36	Y36	Z36	X37	Y37	Z37	X38	Y38	Z38	X39	Y39	Z39	X40	Y40	Z40	X41	Y41	Z41	X42	Y42	Z42	X43	Y43	Z43	X44	Y44	Z44	X45	Y45	Z45	X46	Y46	Z46	X47	Y47	Z47	X48	Y48	Z48	X49	Y49	Z49	X50	Y50	Z50	X51	Y51	Z51	X52	Y52	Z52	X53	Y53	Z53	X54	Y54	Z54	X55	Y55	Z55	

408	4.07	280.549560546875	982.7728881835938	596.1326904296875	448.4414978027344	986.2698974609375	647.07666015625	348.5671997070312	1059.254760742188	630.486572265625	317.553466796875	1243.4609375	861.6846923828125	340.0243225097656	1164.5	605.0442504882812	362.4439086914062	1409.38916015625	630.004150390625	337.7593383789062	1338.19287109375	793.3945922851562	281.5183715820312	1274.871826171875	581.5133056640625	462.8618774414062	1361.505249023438	626.1763916015625	509.7393798828125	1374.635498046875	717.92724609375	580.144287109375	1255.7158203125	693.0004272460938	594.6766967773438	1054.307739257812	699.1512451171875	526.3167724609375	1037.671142578125	648.3008422851562	569.2940673828125	842.13623046875	804.9188232421875	621.7152709960938	826.1347045898438	757.7762451171875	607.9423217773438	951.1223754882812	717.2271728515625	580.9537353515625	659.6437377929688	827.3880004882812	623.373046875	739.852294921875	772.36865234375	597.8578491210938	747.707275390625	832.5936889648438	198.6586761474609	1403.232177734375	685.2349243164062	126.3424606323242	1347.394287109375	683.4741821289062	68.55574035644531	1083.389404296875	731.9755249023438	148.7990570068359	1064.142700195312	684.6976318359375	132.9239196777344	868.9542846679688	848.4862060546875	50.33325958251953	868.041015625	824.831298828125	60.42552947998047	1022.007507324219	769.3563232421875	120.5411987304688	683.7749633789062	867.9364013671875	51.01088714599609	759.0468139648438	858.7017822265625	309.5269775390625	1579.124145507812	643	402.1965026855469	1610.697998046875	833.4203491210938	310.0276184082031	1610.647827148438	816.3551635742188	453.4050903320312	1568.603759765625	669.9143676757812	524.447998046875	949.9805297851562	748.4163818359375	107.6921157836914	934.72900390625	688.6558227539062	187.7982940673828	941.0982666015625	798.6292724609375	432.851318359375	954.625732421875	860.2427978515625	450.2113342285156	490.9120483398438	883.8786010742188	485.32421875	629.8095703125	856.8310546875	434.8155822753906	47.0946044921875	818.9296264648438	451.9940490722656	256.3202514648438	857.496337890625	333.7872009277344	35.32851791381836	1012.373107910156	310.5658874511719	29.72868728637695	932.894287109375	421.8448181152344	39.73403167724609	939.1995239257812	385.1389770507812	44.21670532226562	762.315673828125	138.5908966064453	466.7182922363281	733.1204833984375	134.6743774414062	722.6688842773438	729.76025390625	208.9252777099609	200.1033935546875	382.6600341796875	155.5364074707031	360.6589050292969	670.5225219726562	254.6600799560547	47.56831359863281	499.9300842285156	295.3975524902344	93.86077880859375	466.3751220703125	185.6591339111328	105.6226119995117	425.6591186523438	255.9116058349609	244.5116882324219	355.734130859375	114.2945251464844	757.1561279296875	892.435791015625	nan	nan	nan	nan	nan	nan	
409	4.08	281.9033508300781	983.2045288085938	600.799560546875	449.6123046875	986.9590454101562	652.591796875	350.6828002929688	1060.291137695312	636.0299682617188	317.0928649902344	1244.132080078125	867.6725463867188	342.9169006347656	1165.617797851562	610.7868041992188	365.3235473632812	1410.55322265625	636.8203125	338.1947326660156	1338.807495117188	799.6345825195312	285.0543212890625	1276.236572265625	586.981689453125	465.9198913574219	1362.779174804688	634.3721313476562	511.0682067871094	1375.672485351562	726.952392578125	582.2574462890625	1256.713989257812	704.310791015625	597.3265380859375	1055.354736328125	713.3526611328125	530.6201782226562	1038.034057617188	660.4725341796875	569.7642211914062	845.5546264648438	821.9674072265625	623.3418579101562	828.7046508789062	776.3692016601562	610.1780395507812	952.6661987304688	733.307861328125	581.666748046875	663.6843872070312	848.7896118164062	624.97705078125	742.7825317382812	792.9208374023438	598.027587890625	751.8933715820312	852.3283081054688	200.6936340332031	1404.135864257812	689.6965942382812	128.4909210205078	1348.23291015625	686.4600219726562	69.41215515136719	1084.251220703125	732.3411865234375	150.9050445556641	1064.964477539062	687.4801025390625	129.6618194580078	868.9451293945312	849.23779296875	47.79001235961914	868.6168823242188	823.6135864257812	59.86124420166016	1022.792541503906	769.2371215820312	115.6666488647461	683.7766723632812	867.8621826171875	46.97249603271484	759.5718383789062	857.1241455078125	311.8493041992188	1580.241577148438	649.9728393554688	403.1041870117188	1611.15283203125	841.177978515625	311.0221252441406	1611.29296875	823.4158935546875	455.5200500488281	1569.451782226562	677.94482421875	525.173095703125	950.9236450195312	754.5360717773438	108.6754150390625	935.71484375	692.591552734375	188.5613555908203	942.0267944335938	802.7673950195312	433.2401733398438	955.1076049804688	865.6022338867188	450.5628051757812	490.6930236816406	886.2990112304688	485.4584350585938	629.873046875	860.5995483398438	434.7965393066406	47.12935638427734	818.9417724609375	452.1885375976562	256.1758728027344	858.388916015625	333.7862243652344	35.31879425048828	1012.4072265625	310.5507202148438	29.72864151000977	932.9027709960938	421.8602294921875	39.70750045776367	939.2182006835938	385.1448974609375	44.4343147277832	762.3910522460938	137.3631286621094	468.7588195800781	746.4735107421875	134.4193420410156	724.3651733398438	737.0364379882812	210.5051879882812	202.9899597167969	396.4973449707031	154.6619567871094	362.8208312988281	684.5348510742188	250.8666687011719	50.58856201171875	516.5699462890625	292.861328125	95.73504638671875	482.9436950683594	183.8887329101562	110.0209732055664	440.6260986328125	258.4866943359375	246.3976287841797	369.6915588378906	109.3456344604492	756.9733276367188	892.2302856445312	nan	nan	nan	nan	nan	nan	
410	4.09	283.0218200683594	983.5368041992188	605.2626342773438	450.6000671386719	987.507080078125	657.7113037109375	352.6724548339844	1061.220092773438	641.3721923828125	316.7328186035156	1244.861938476562	873.4561767578125	345.7000427246094	1166.667114257812	616.3050537109375	368.1152038574219	1411.669921875	643.433837890625	338.6617736816406	1339.463134765625	805.6193237304688	288.4957885742188	1277.5400390625	592.2437744140625	468.8400268554688	1364.001831054688	642.3053588867188	512.3169555664062	1376.697875976562	735.6365356445312	584.2166748046875	1257.739624023438	715.31689453125	599.8505249023438	1056.49951171875	727.3828125	534.819091796875	1038.37841796875	672.5587158203125	570.1565551757812	849.1145629882812	838.8114013671875	624.8255004882812	831.4750366210938	794.828125	612.2705688476562	954.3737182617188	749.2550048828125	582.0537109375	667.9108276367188	869.8160400390625	626.3739624023438	745.9358520507812	813.275390625	597.9518432617188	756.2362670898438	871.7889404296875	202.6749114990234	1405.010131835938	693.96923828125	130.6672515869141	1349.049072265625	689.2552490234375	70.31354522705078	1085.084106445312	732.1986083984375	153.1708374023438	1065.797119140625	690.0771484375	126.3911361694336	869.22509765625	849.9534301757812	45.42448806762695	869.2244873046875	822.0357666015625	59.33195114135742	1023.544555664062	768.5756225585938	111.1994552612305	684.1488647460938	868.1697387695312	43.21918106079102	760.2348022460938	855.410400390625	314.0808410644531	1581.370727539062	656.8441162109375	403.9011535644531	1611.493408203125	848.8374633789062	311.9316101074219	1611.827270507812	830.37890625	457.533447265625	1570.296997070312	685.8630981445312	525.747802734375	951.7469482421875	760.0999755859375	109.6911926269531	936.7395629882812	696.4710693359375	189.3566741943359	942.9939575195312	806.8497924804688	433.7381591796875	955.5985717773438	870.64794921875	451.0068664550781	490.4833068847656	888.5431518554688	485.6625671386719	629.930908203125	864.0745239257812	434.7864685058594	47.16653060913086	818.9559326171875	452.4395446777344	256.061279296875	859.1903686523438	333.7983093261719	35.31441497802734	1012.432312011719	310.541748046875	29.73328018188477	932.9124145507812	421.8868103027344	39.67514038085938	939.2417602539062	385.1560668945312	44.65834808349609	762.4874877929688	136.2992095947266	470.8960571289062	759.5821533203125	134.0922088623047	726.1096801757812	744.3184814453125	211.55224609375	204.6920928955078	410.8111877441406	153.83349609375	364.9329223632812	698.4686889648438	248.3878784179688	53.47979736328125	533.7982177734375	291.1180725097656	97.57826232910156	499.8177490234375	182.6611480712891	113.2210464477539	456.5369262695312	260.1394348144531	247.2760772705078	383.7841796875	104.5417785644531	757.1270141601562	891.9982299804688	nan	nan	nan	nan	nan	nan	
411	4.1	283.9176940917969	983.7542724609375	609.5379638671875	451.407958984375	987.9122924804688	662.4365844726562	354.5239868164062	1062.024047851562	646.484375	316.4749755859375	1245.624633789062	879.0277709960938	348.3671875	1167.657470703125	621.6155395507812	370.8065490722656	1412.736450195312	649.8501586914062	339.1669921875	1340.154541015625	811.3717651367188	291.8243408203125	1278.774169921875	597.3036499023438	471.6125183105469	1365.1689453125	649.9732666015625	513.4935302734375	1377.708618164062	743.973876953125	586.0303955078125	1258.790405273438	725.9791870117188	602.232177734375	1057.739990234375	741.1663818359375	538.8629760742188	1038.7197265625	684.5311889648438	570.4593505859375	852.8117065429688	855.414306640625	626.1526489257812	834.4402465820312	813.099853515625	614.2125854492188	956.2394409179688	764.9998779296875	582.1551513671875	672.3189697265625	890.457275390625	627.565185546875	749.3070068359375	833.390625	597.6641235351562	760.7374877929688	890.9442138671875	204.5978546142578	1405.85498046875	698.0757446289062	132.871337890625	1349.847412109375	691.8892211914062	71.27376556396484	1085.8935546875	731.60546875	155.5586547851562	1066.642700195312	692.5110473632812	123.1189575195312	869.743896484375	850.6240844726562	43.25384140014648	869.849609375	820.1372680664062	58.87056350708008	1024.272827148438	767.43017578125	107.1362228393555	684.8330688476562	868.7943725585938	39.77716445922852	760.9965209960938	853.564697265625	316.2156677246094	1582.4970703125	663.5991821289062	404.5892028808594	1611.727783203125	856.3786010742188	312.7594604492188	1612.25244140625	837.2288818359375	459.4420166015625	1571.136474609375	693.6541748046875	526.2254638671875	952.4541015625	765.109619140625	110.7449493408203	937.7864379882812	700.3283081054688	190.1893463134766	943.9820556640625	810.9098510742188	434.3502197265625	956.10009765625	875.3895263671875	451.5325012207031	490.2850646972656	890.6149291992188	485.9300231933594	629.9864501953125	867.26611328125	434.7837829589844	47.20468521118164	818.9737548828125	452.7490234375	255.9825286865234	859.9203491210938	333.8199157714844	35.31364822387695	1012.449645996094	310.54052734375	29.74295234680176	932.9251098632812	421.9232788085938	39.64027786254883	939.2704467773438	385.1694946289062	44.88822555541992	762.6027221679688	135.4078979492188	473.0768737792969	772.4188842773438	133.7562561035156	727.8677978515625	751.6143188476562	212.0446319580078	205.2159118652344	425.4895935058594	153.0624542236328	366.9292297363281	712.281494140625	247.1468963623047	56.10177993774414	551.5054931640625	290.1703491210938	99.27539825439453	516.9036254882812	181.9733734130859	115.1681060791016	473.212890625	260.8855590820312	247.1651763916016	397.9372863769531	99.88070678710938	757.5965576171875	891.7433471679688	nan	nan	nan	nan	nan	nan	
